<?xml version="1.0" encoding="iso-8859-1"?>
<!-- Generator: Adobe Illustrator 16.0.0, SVG Export Plug-In . SVG Version: 6.00 Build 0)  -->
<!DOCTYPE svg PUBLIC "-//W3C//DTD SVG 1.1//EN" "http://www.w3.org/Graphics/SVG/1.1/DTD/svg11.dtd">
<svg version="1.1" id="Capa_1" xmlns="http://www.w3.org/2000/svg" xmlns:xlink="http://www.w3.org/1999/xlink" x="0px" y="0px"
	 width="549.969px" height="549.969px" viewBox="0 0 549.969 549.969" style="enable-background:new 0 0 549.969 549.969;"
	 xml:space="preserve">
<g>
	<g>
		<path d="M536.062,448.715c-5.737-11.713-20.941-21.209-33.994-21.209H400.236c-6.521,0-14.611-4.484-18.073-10.002
			l-83.739-133.607L422.354,80.579c8.242-13.531,5.326-24.519-6.531-24.538c-11.848-0.019-28.276,10.844-36.691,24.27
			L274.986,246.498L170.832,80.311c-8.415-13.426-24.844-24.289-36.691-24.27c-11.848,0.029-14.774,11.006-6.531,24.538
			l123.93,203.318L167.8,417.514c-3.452,5.518-11.551,10.002-18.073,10.002H47.906c-13.043,0-28.257,9.496-33.995,21.209
			L2.188,472.707c-5.737,11.715,0.201,21.221,13.244,21.221h143.16c6.521,0,14.554-4.514,17.958-10.08l98.436-161.49l98.437,161.49
			c3.404,5.566,11.437,10.08,17.958,10.08h143.161c13.043,0,18.972-9.506,13.243-21.221L536.062,448.715z"/>
	</g>
</g>
<g>
</g>
<g>
</g>
<g>
</g>
<g>
</g>
<g>
</g>
<g>
</g>
<g>
</g>
<g>
</g>
<g>
</g>
<g>
</g>
<g>
</g>
<g>
</g>
<g>
</g>
<g>
</g>
<g>
</g>
</svg>
